<svg width="92" height="83" viewBox="0 0 92 83" fill="none" xmlns="http://www.w3.org/2000/svg">
<g filter="url(#filter0_d_2_8)">
<path d="M13.6662 35.1193L17.9797 23.9042L21.5263 17.9612L26.9901 13.1685L33.7958 10.0053L41.1766 8.4716L48.5574 9.04673V6.45865L56.4175 8.4716L55.2673 10.4846L58.2388 11.2514L61.5937 14.127L65.1403 16.9068L67.4408 20.1659L68.2077 23.9042V28.026L69.4538 27.0675L85.4616 28.026V29.4638L80.9564 30.4224L75.3009 32.7229L72.617 35.1193L71.1792 36.1737L72.0419 37.3719L73.1921 37.8032L73.5276 40.1996L73.1921 43.2669L72.0419 45.5675L70.6999 45.1361V42.2605L71.1792 41.0623L70.4123 38.9055L69.8851 40.1996L70.4123 41.4457L69.8851 43.2669L69.1183 45.5675L68.5911 47.1011L67.6805 48.1076L66.9136 48.5869L65.9551 51.4146L64.709 54.0985L64.9965 55.2967L65.9551 54.9612L66.4344 57.118L65.4758 57.6452L64.9965 58.3641L64.709 59.9457L62.6002 61.0001L61.4499 61.5752L60.7789 61.719L58.8618 61.5752L55.1235 58.1724L50.3787 53.3796L45.6818 48.2035L43.4771 44.8006L41.3204 45.5675L42.6144 51.0312L43.7167 56.6866L44.6274 62.4379L41.56 63.8278L41.8476 65.9846L40.0743 66.4638L38.2051 63.2527L36.1921 57.118L34.2271 64.0675L31.687 71.3045L29.4344 76.3848L26.1753 75.57L27.661 71.5441L26.6066 70.1542L25.7439 67.8058L25.1209 65.9846L24.8333 67.8058V69.4353L22.6287 69.8667L22.3411 69.0998L20.8074 70.1542L19.4175 71.3045L18.5069 69.4353L20.3761 67.4703L20.1364 66.7035L19.1779 68.1413L17.5963 69.4353L16.0626 68.6206L18.1235 64.0675L18.5069 62.8213L15.9188 67.2786L14.5289 68.6206L13.3787 67.4703L18.1235 59.2747L13.8579 65.9846L16.446 58.1724L12.8994 67.2786L10.9344 66.9431L12.4201 61.719L11.9408 61.5752L10.9344 58.1724L12.8994 57.118L10.9344 54.0506L15.9188 48.5869L16.9732 44.8006L17.5963 44.3693L16.9732 43.8421L15.152 43.219L15.4395 42.8356L4.65587 39.4807L4.56001 38.9535L3.45768 38.8097V38.0428L2.73877 37.6594L4.56001 35.1193L5.71027 35.5027L6.8126 34.9276L8.05872 35.5027L9.30483 34.1128L12.7077 35.3589L13.6662 35.1193Z" fill="black"/>
<path d="M68.2077 28.026V23.9042L67.4408 20.1659L65.1403 16.9068L61.5937 14.127L58.2388 11.2514L55.2673 10.4846L56.4175 8.4716L48.5574 6.45865V9.04673L41.1766 8.4716L33.7958 10.0053L26.9901 13.1685L21.5263 17.9612L17.9797 23.9042L13.6662 35.1193L12.7077 35.3589M15.4395 42.8356L4.65587 39.4807L4.56001 38.9535L3.45768 38.8097V38.0428L2.73877 37.6594L4.56001 35.1193L5.71027 35.5027L6.8126 34.9276L8.05872 35.5027L9.30483 34.1128L12.7077 35.3589L17.9797 37.0364L24.8333 38.5221L32.7414 39.4807L38.6844 38.5221L45.4421 36.5092L53.8774 34.0169L61.9292 31.0454L68.2077 28.026L69.4538 27.0675L85.4616 28.026V29.4638L80.9564 30.4224L75.3009 32.7229M75.3009 32.7229L72.617 35.1193L71.1792 36.1737L72.0419 37.3719L73.1921 37.8032L73.5276 40.1996L73.1921 43.2669L72.0419 45.5675L70.6999 45.1361V42.2605L71.1792 41.0623L70.4123 38.9055L69.8851 40.1996L70.4123 41.4457L69.8851 43.2669L69.1183 45.5675L68.5911 47.1011L67.6805 48.1076L66.9136 48.5869L65.9551 51.4146L64.709 54.0985L64.9965 55.2967L65.9551 54.9612L66.4344 57.118L65.4758 57.6452L64.9965 58.3641L64.709 59.9457L62.6002 61.0001L61.4499 61.5752L60.7789 61.719L58.8618 61.5752L55.1235 58.1724L50.3787 53.3796L45.6818 48.2035L43.4771 44.8006L41.3204 45.5675L42.6144 51.0312L43.7167 56.6866L44.6274 62.4379L41.56 63.8278L41.8476 65.9846L40.0743 66.4638L38.2051 63.2527L36.1921 57.118L34.2271 64.0675L31.687 71.3045L29.4344 76.3848L26.1753 75.57L27.661 71.5441L26.6066 70.1542L25.7439 67.8058L25.1209 65.9846L24.8333 67.8058V69.4353L22.6287 69.8667L22.3411 69.0998L20.8074 70.1542L19.4175 71.3045L18.5069 69.4353L20.3761 67.4703L20.1364 66.7035L19.1779 68.1413L17.5963 69.4353L16.0626 68.6206L18.1235 64.0675L18.5069 62.8213L15.9188 67.2786L14.5289 68.6206L13.3787 67.4703L18.1235 59.2747L13.8579 65.9846L16.446 58.1724L12.8994 67.2786L10.9344 66.9431L12.4201 61.719L11.9408 61.5752L10.9344 58.1724L12.8994 57.118L10.9344 54.0506L15.9188 48.5869L16.9732 44.8006L17.5963 44.3693L16.9732 43.8421L15.152 43.219L15.4395 42.8356M75.3009 32.7229L65.4758 36.1737L51.6727 41.4457L41.8476 44.3693L31.2077 44.8006L19.6092 43.6024L15.4395 42.8356" stroke="white"/>
<path d="M63.7983 18.4884L83.209 2.38481L64.9965 26.4444L63.7983 23.2333V18.4884Z" fill="black"/>
<path d="M63.7983 23.2333L64.9965 26.4444L83.209 2.38481L63.7983 18.4884V23.2333ZM83.209 2.38481L63.7983 23.2333" stroke="white"/>
<path d="M59.7725 47.7721L61.4499 42.1646L62.0251 44.2255L61.4499 47.7721L60.06 49.2099L59.7725 47.7721Z" fill="white"/>
<path d="M63.6067 43.0752L64.1818 40.4392L65.4528 37.2853L66.4344 37.7553L65.4758 41.877L64.7569 44.2255L63.6067 43.0752Z" fill="white"/>
<path d="M67.4888 45.184L67.2491 43.9858L66.9137 44.2255L65.4528 49.2099L66.0989 48.6827L67.4888 45.184Z" fill="white"/>
<path d="M62.696 49.7371L62.0251 48.9703L60.5872 52.5169L60.06 55.6322L61.4499 55.2009C61.4499 54.6896 61.4978 53.5522 61.6896 53.0921C61.8813 52.632 62.4404 50.6637 62.696 49.7371Z" fill="white"/>
<path d="M65.4758 37.2281L65.4528 37.2853M65.4528 37.2853L64.1818 40.4392L63.6067 43.0752L64.7569 44.2255L65.4758 41.877L66.4344 37.7553L65.4528 37.2853ZM61.4499 42.1646L59.7725 47.7721L60.06 49.2099L61.4499 47.7721L62.0251 44.2255L61.4499 42.1646ZM67.2491 43.9858L67.4888 45.184L66.0989 48.6827L65.4528 49.2099L66.9137 44.2255L67.2491 43.9858ZM62.0251 48.9703L62.696 49.7371C62.4404 50.6637 61.8813 52.632 61.6896 53.0921C61.4978 53.5522 61.4499 54.6896 61.4499 55.2009L60.06 55.6322L60.5872 52.5169L62.0251 48.9703Z" stroke="black"/>
</g>
<defs>
<filter id="filter0_d_2_8" x="0" y="0" width="91.9614" height="82.9718" filterUnits="userSpaceOnUse" color-interpolation-filters="sRGB">
<feFlood flood-opacity="0" result="BackgroundImageFix"/>
<feColorMatrix in="SourceAlpha" type="matrix" values="0 0 0 0 0 0 0 0 0 0 0 0 0 0 0 0 0 0 127 0" result="hardAlpha"/>
<feOffset dx="2" dy="2"/>
<feGaussianBlur stdDeviation="2"/>
<feComposite in2="hardAlpha" operator="out"/>
<feColorMatrix type="matrix" values="0 0 0 0 0 0 0 0 0 0 0 0 0 0 0 0 0 0 0.4 0"/>
<feBlend mode="normal" in2="BackgroundImageFix" result="effect1_dropShadow_2_8"/>
<feBlend mode="normal" in="SourceGraphic" in2="effect1_dropShadow_2_8" result="shape"/>
</filter>
</defs>
</svg>
