<svg width="33" height="33" viewBox="0 0 33 33" fill="none" xmlns="http://www.w3.org/2000/svg">
<path d="M16.5 0C25.6127 0 33 7.3873 33 16.5C33 25.6127 25.6127 33 16.5 33C7.3873 33 0 25.6127 0 16.5C0 7.3873 7.3873 0 16.5 0ZM20.3281 8C19.4865 8.00004 18.6882 8.37398 18.1494 9.02051L15.3633 12.3643C15.2311 12.523 15.1105 12.6894 15 12.8613V11C15 9.34315 13.6569 8 12 8C10.3431 8 9 9.34315 9 11V22C9 23.6569 10.3431 25 12 25C13.6569 25 15 23.6569 15 22V19.082C15.1061 19.2635 15.2225 19.4396 15.3516 19.6074L18.6738 23.9258C19.195 24.603 20.0009 24.9999 20.8555 25C23.0544 25 24.3662 22.5493 23.1465 20.7197L20 16L22.5967 12.5371C23.9987 10.6676 22.665 8 20.3281 8Z" fill="white"/>
</svg>
